<?xml version="1.0" encoding="utf-8"?>
<svg id="Layer_1" width="357.1" height="210.1" viewBox="0 0 357.1 210.1" xmlns="http://www.w3.org/2000/svg">
  <defs>
    <style>
      .cls-1{fill:#915686;}.cls-2{fill:#fff;}.cls-2,.cls-3{fill-rule:evenodd;}.cls-3{fill:none;stroke:#222;stroke-linecap:square;stroke-linejoin:round;stroke-width:3px;}
    </style>
  </defs>
  <title>
    icon-woo
  </title>
  <path class="cls-1" d="M0 0h357.1v210.14H0z" style="fill: rgb(145, 86, 134);"/>
  <path class="cls-2" d="M115 68.7a16.2 16.2 0 0 0-15.4 16.8l2 48.4a16 16 0 0 0 16.7 15.4l62.5-2.7 27.5 13.9-7.1-14.8 45.9-2a16.2 16.2 0 0 0 15.4-16.8l-1.9-48.4a16 16 0 0 0-16.7-15.4z"/>
  <path class="cls-3" d="M113.8 62.2a16.5 16.5 0 0 0-16.9 15.9l-1.7 49.2a16.4 16.4 0 0 0 15.7 17l63.9 2.2 27.1 16.4-6.1-15.7 47.2 1.6a16.6 16.6 0 0 0 17.2-16l1.8-49.6a16.4 16.4 0 0 0-16-17z"/>
  <path class="cls-3" d="M107.2 75.2s10 54 10.4 54.7 23-39.5 23-39.5 4.8 20.4 6.2 23.2l8.3 16.5s2.4-21.5 3.9-27.5 6.1-23.2 9.7-28.4M195.9 86.7c-8.5-2.7-16.4 9.1-18 13.7s-3.7 19.7 4.4 24c6 3.2 17.2-2.7 21.4-15.2s-1.8-20.5-7.8-22.5zM240.9 88.6c7.3 2.9 8.4 15.9 3.5 25.2s-10.8 14.9-18.1 12-10.9-13.6-5.3-25.9c4.3-9.6 13.3-13.9 19.9-11.3z"/>
</svg>
