<svg id="Layer_1" data-name="Layer 1" xmlns="http://www.w3.org/2000/svg" xmlns:xlink="http://www.w3.org/1999/xlink" width="357.1" height="210" viewBox="0 0 357.1 210"><defs><style>.cls-1{fill:#fff;}.cls-1,.cls-2,.cls-3{fill-rule:evenodd;}.cls-2{fill:none;stroke:#202030;stroke-linecap:round;stroke-linejoin:round;stroke-width:4px;}.cls-3{fill:#121320;}</style></defs><title>icon-code</title><g id="dV3qyj.tif"><image id="Layer_0" data-name="Layer 0" width="925" height="563" transform="scale(0.39 0.37)" xlink:href="ai1474200162581.png"/></g><path class="cls-1" d="M126.8,51.2l12.3,83s11,19.1,25.9,25.9a53.8,53.8,0,0,0,28.3,4.6,54.1,54.1,0,0,0,25.9-12.6c12.4-10.9,17.6-32.6,17.6-32.6L224.4,35.9s-11.7,13.6-23.9,15.6-25.1-7.8-25.1-7.8S166,56.8,153.8,58.7,126.8,51.2,126.8,51.2Z" transform="translate(0 -0.2)"/><path class="cls-2" d="M136,43.9v83.9s8.2,20.6,22.1,29.4a54.4,54.4,0,0,0,27.4,8.7,54.4,54.4,0,0,0,27.5-8.7c13.9-8.9,22-29.4,22-29.4V43.9s-13.5,11.6-25.8,11.6-23.7-11.6-23.7-11.6-11.3,11.6-23.7,11.6S136,43.9,136,43.9Z" transform="translate(0 -0.2)"/><polygon class="cls-3" points="165.4 108.1 180.1 126.9 187.6 117.1 209.6 88 178.9 117.6 165.4 108.1"/></svg>
