<svg id="Layer_1" data-name="Layer 1" xmlns="http://www.w3.org/2000/svg" width="357.2" height="210.1" viewBox="0 0 357.2 210.1"><defs><style>.cls-1{fill:#2aa649;}.cls-2{fill:#fff;}.cls-2,.cls-3{fill-rule:evenodd;}.cls-3{fill:none;stroke:#010101;stroke-linecap:square;stroke-linejoin:round;stroke-width:3px;}</style></defs><title>icon-nut</title><rect class="cls-1" width="357.2" height="210.14"/><path class="cls-2" d="M167.6,129.7l-16.8,33.5s-36.2-14.6-30.5-60.7c4.8-39.3,44.9-52.8,64.4-50.5s56.4,25,51.4,66.2-43.7,50.4-43.7,50.4L183,131.1s13.5-3.8,15.1-16.6S190.3,92.2,180.8,91s-21.3,5-22.7,16.1C156.1,123.3,167.6,129.7,167.6,129.7Z" transform="translate(0 0)"/><path class="cls-3" d="M174.2,128.7l-12.5,35.1s-37.4-10.1-37.4-56.2c0-39.3,37.8-57.4,57.4-57.4s58.6,17.9,58.6,59.1-37,54.9-37,54.9l-13.7-35.9s12.9-5.3,12.9-18.2S192.1,89,182.5,89s-20.4,7.5-20.4,18.6C162.2,123.8,174.2,128.7,174.2,128.7Z" transform="translate(0 0)"/></svg>
