<?xml version="1.0" encoding="utf-8"?>
<!-- Generator: Adobe Illustrator 20.1.0, SVG Export Plug-In . SVG Version: 6.00 Build 0)  -->
<svg version="1.1" id="Layer_1" xmlns="http://www.w3.org/2000/svg" xmlns:xlink="http://www.w3.org/1999/xlink" x="0px" y="0px"
	 viewBox="0 0 357.1 210.1" style="enable-background:new 0 0 357.1 210.1;" xml:space="preserve">
<style type="text/css">
	.st0{fill-rule:evenodd;clip-rule:evenodd;fill:#CB2C2B;}
	.st1{fill-rule:evenodd;clip-rule:evenodd;fill:#FFFFFF;}
	
		.st2{fill-rule:evenodd;clip-rule:evenodd;fill:none;stroke:#1F1F2F;stroke-width:3;stroke-linecap:round;stroke-linejoin:round;stroke-miterlimit:10;}
</style>
<rect class="st0" width="357.1" height="210.1"/>
<path class="st1" d="M222.3,155.7l21.2-55.1l-39.8-46.3l-61,8.8l-21.2,55.1l39.8,46.3L222.3,155.7z M159.5,109.4
	c0-12.7,10.3-23,23-23s23,10.3,23,23s-10.3,23-23,23S159.5,122.1,159.5,109.4z"/>
<path class="st2" d="M211.1,162.9l26.2-53.3l-35.6-49.5l-61.8,3.8l-26.2,53.3l35.6,49.5L211.1,162.9z M152.5,111.5
	c1.2-12.7,12.4-22.1,25.1-21.1c12.7,1,22.1,12.2,20.9,24.8c-1.1,12.7-12.4,22.1-25.1,21.1C160.7,135.3,151.3,124.2,152.5,111.5z"/>
</svg>
