<?xml version="1.0" encoding="UTF-8" standalone="no"?>
<svg width="183px" height="153px" viewBox="0 0 183 153" version="1.1" xmlns="http://www.w3.org/2000/svg" xmlns:xlink="http://www.w3.org/1999/xlink" xmlns:sketch="http://www.bohemiancoding.com/sketch/ns">
    <!-- Generator: Sketch 3.3.2 (12043) - http://www.bohemiancoding.com/sketch -->
    <title>jupiter</title>
    <desc>Created with Sketch.</desc>
    <defs>
        <path id="path-1" d="M1.72762918,73.6671654 C-7.98313529,123.108944 24.225148,171.061607 73.6671691,180.772371 C123.108711,190.483135 171.061615,158.274853 180.77238,108.832835 C190.483144,59.3908161 158.274622,11.4383931 108.83284,1.72762909 C59.390819,-7.9831349 11.4383937,24.2251468 1.72762918,73.6671654"></path>
    </defs>
    <g id="Page-1" stroke="none" stroke-width="1" fill="none" fill-rule="evenodd" sketch:type="MSPage">
        <g id="Desktop-HD" sketch:type="MSArtboardGroup" transform="translate(-980.000000, 0.000000)">
            <g id="lrg-planet-+-jupiter" sketch:type="MSLayerGroup" transform="translate(-40.000000, -30.000000)">
                <g id="jupiter" transform="translate(1020.000000, 0.000000)">
                    <path d="M1.72762918,73.6671654 C-7.98313529,123.108944 24.225148,171.061607 73.6671691,180.772371 C123.108711,190.483135 171.061615,158.274853 180.77238,108.832835 C190.483144,59.3908161 158.274622,11.4383931 108.83284,1.72762909 C59.390819,-7.9831349 11.4383937,24.2251468 1.72762918,73.6671654" id="Fill-1" fill="#588B1A" sketch:type="MSShapeGroup"></path>
                    <g id="Group-17">
                        <mask id="mask-2" sketch:name="Clip 3" fill="white">
                            <use xlink:href="#path-1"></use>
                        </mask>
                        <g id="Clip-3"></g>
                        <path d="M90.2486239,69.2685321 C93.3493028,53.4810459 108.661156,43.1964954 124.448642,46.2971743 C140.236367,49.3980917 150.520917,64.709945 147.42,80.4974312 C144.319321,96.2849174 129.007229,106.569468 113.219982,103.468789 C97.4322569,100.36811 87.1477064,85.0560183 90.2486239,69.2685321" id="Fill-2" fill="#5D941C" sketch:type="MSShapeGroup" mask="url(#mask-2)"></path>
                        <path d="M98.1449908,95.3920917 C88.5653028,85.7284404 76.7045321,78.6349725 63.6582569,74.7676514 L67.7135413,54.1210275 C81.2533394,55.4751743 94.9159817,53.3949358 107.439156,48.0723303 L98.1449908,95.3920917" id="Fill-4" fill="#5D941C" sketch:type="MSShapeGroup" mask="url(#mask-2)"></path>
                        <path d="M130.229468,101.693872 C142.752642,96.3710275 156.415523,94.290789 169.955083,95.6451743 L174.010367,74.9985505 C160.964092,71.1312294 149.103321,64.0377615 139.523394,54.3738716 L130.229468,101.693872" id="Fill-6" fill="#5D941C" sketch:type="MSShapeGroup" mask="url(#mask-2)"></path>
                        <path d="M181.376239,87.166789 C182.501156,81.4398716 178.770275,75.8856514 173.043596,74.7607339 C167.316679,73.636055 161.762459,77.3666972 160.637541,83.0936147 C159.512862,88.8202936 163.243505,94.3747523 168.970183,95.4994312 C174.697101,96.6243486 180.25156,92.8937064 181.376239,87.166789" id="Fill-7" fill="#5D941C" sketch:type="MSShapeGroup" mask="url(#mask-2)"></path>
                        <path d="M282.876661,117.871596 L169.132147,95.5313945 L173.196257,74.8384954 L286.940771,97.1789358 L282.876661,117.871596" id="Fill-8" fill="#5D941C" sketch:type="MSShapeGroup" mask="url(#mask-2)"></path>
                        <path d="M64.6796514,75.0159633 L-25.8785872,57.229578 L-21.8144771,36.5369174 L68.744,54.3233028 L64.6796514,75.0159633" id="Fill-9" fill="#5D941C" sketch:type="MSShapeGroup" mask="url(#mask-2)"></path>
                        <path d="M55.2254312,122.464055 C57.1406055,112.712862 66.5981651,106.360752 76.3491193,108.275927 C86.1003119,110.191101 92.452422,119.648422 90.5372477,129.399615 C88.6220734,139.150569 79.1647523,145.502917 69.4135596,143.587743 C59.6626055,141.672569 53.3102569,132.215009 55.2254312,122.464055" id="Fill-10" fill="#5D941C" sketch:type="MSShapeGroup" mask="url(#mask-2)"></path>
                        <path d="M60.1026972,138.599083 C54.1859083,132.630294 46.8601101,128.249174 38.8020183,125.860514 L41.306844,113.10811 C49.6695413,113.944642 58.1083303,112.65967 65.843211,109.37222 L60.1026972,138.599083" id="Fill-11" fill="#5D941C" sketch:type="MSShapeGroup" mask="url(#mask-2)"></path>
                        <path d="M34.2524954,118.344844 C34.9473394,114.807651 38.3779083,112.503431 41.9151009,113.198037 C45.4522936,113.892881 47.7565138,117.32345 47.0616697,120.860642 C46.3670642,124.397835 42.9362569,126.702055 39.3993028,126.007211 C35.8621101,125.312606 33.5578899,121.881798 34.2524954,118.344844" id="Fill-12" fill="#5D941C" sketch:type="MSShapeGroup" mask="url(#mask-2)"></path>
                        <path d="M79.9197064,142.49145 C87.6545872,139.203761 96.0931376,137.918789 104.456073,138.755321 L106.960661,126.003156 C98.9028073,123.614495 91.5767706,119.233138 85.6599817,113.264349 L79.9197064,142.49145" id="Fill-13" fill="#5D941C" sketch:type="MSShapeGroup" mask="url(#mask-2)"></path>
                        <path d="M111.510183,133.518826 C112.205028,129.981633 109.900807,126.551064 106.363615,125.85622 C102.826422,125.161615 99.3958532,127.465835 98.7010092,131.003028 C98.0064037,134.539982 100.310624,137.970789 103.847817,138.665394 C107.385009,139.360239 110.815578,137.056018 111.510183,133.518826" id="Fill-14" fill="#5D941C" sketch:type="MSShapeGroup" mask="url(#mask-2)"></path>
                        <path d="M174.20167,152.48356 L103.947761,138.684954 L106.457835,125.904404 L176.711982,139.702771 L174.20167,152.48356" id="Fill-15" fill="#5D941C" sketch:type="MSShapeGroup" mask="url(#mask-2)"></path>
                        <path d="M39.4329358,126.01389 L-123.047982,94.1013945 L-120.53767,81.3206055 L41.9432477,113.233101 L39.4329358,126.01389" id="Fill-16" fill="#5D941C" sketch:type="MSShapeGroup" mask="url(#mask-2)"></path>
                    </g>
                </g>
            </g>
        </g>
    </g>
</svg>
